<svg id="Layer_1" data-name="Layer 1" xmlns="http://www.w3.org/2000/svg" viewBox="0 0 539.78 191.92"><defs><style>.cls-1{fill:#1c4663;}.cls-2{fill:#00aeef;}</style></defs><title>flubit-logo-blue</title><path class="cls-1" d="M99.1,139.93c0-17.48-.74-35-.54-52.44,0-3.38-1-4.72-4.22-5.15C86.4,81.28,78.48,80,70.53,81.91c-6.73,1.6-9.68,4.81-10.28,11.68-.42,4.8-.18,9.65-.46,14.47-.17,2.91,1.16,3.35,3.6,3,5.93-.82,11.9-1.42,17.82-2.31,2.6-.39,3.86-.21,3.79,3-.21,10-.18,20,0,30,0,2.92-.92,3.55-3.68,3.5-5.65-.11-11.32.41-17,.29-3.11-.07-3.49,1.18-3.34,3.84.76,13.79,1.25,27.6,2.09,41.39.17,2.86-.49,3.8-3.31,3.88-12.32.34-24.64.72-36.94,1.33-3.13.16-3.56-1.3-3.65-3.74-.52-13.31-1.32-26.62-1.52-39.93-.07-4.6-1.64-6.07-5.8-5-3.57.89-4.16-.64-4.14-3.83,0-8-.08-16-.51-24-.19-3.52.85-4.94,4.32-4.38,4.07.67,4.8-1,4.7-5-.25-9.8-.18-19.63,1.3-29.39,2.42-15.91,11.34-26.62,26-32.71,15.73-6.52,32.22-6.48,48.68-4.66A233.51,233.51,0,0,1,144,55.65c3.66,1.29,5.19,2.78,5,7-2.4,43.56-3.81,87.17-4,130.8,0,3.36-1.3,3.73-4.1,3.71-12.16-.12-24.32-.19-36.48,0-3.48.06-4.12-1.23-4.1-4.31Z" transform="translate(-7.18 -5.43)"/><path class="cls-1" d="M264.41,129.1c0,8.33.12,16.66,0,25-.4,23.14-12.67,37.36-35.47,41.15a83.4,83.4,0,0,1-35.67-1.48c-19.6-5.28-30.41-18.71-31.18-39-.73-19.14-.89-38.3-1.47-57.44-.09-2.85.54-3.73,3.45-3.45,13.09,1.26,26.2,2.36,39.3,3.46,2.58.22,3.56.83,3.08,4-2.1,13.68-3.22,27.45-2.28,41.32a41.35,41.35,0,0,0,2.2,11.22c1.22,3.41,3.12,6.7,7.17,6.74s5.81-3.35,7-6.79c2.69-7.87,2.55-16,2.6-24.2.06-10.52-1.09-21-2.36-31.37-.33-2.7.31-3.09,2.65-3.13,12.32-.24,24.65-.49,37-1,3-.12,3.25,1.17,3.23,3.5Z" transform="translate(-7.18 -5.43)"/><path class="cls-2" d="M487.84,194.31c-3.94.29-4.65-1.2-4.65-4.77,0-18-.39-36-.3-53.94,0-4.42-1.16-5.66-5.6-5.39-10,.61-10.08.37-10.49-9.82-.27-6.82-.38-13.65-.75-20.46-.15-2.8.68-4.13,3.6-3.64a2.71,2.71,0,0,0,.5,0c3.8-.08,9,1.33,11.06-.61,2.7-2.56.79-7.85.86-11.95q.19-11-.18-22c-.09-2.73.84-3.72,3.47-4.15q21.91-3.59,43.77-7.48c3-.53,3.28.77,3.09,3.25-1,12.94-1.76,25.91-2.9,38.84-.33,3.72.44,5.15,4.38,4.75,3.46-.35,7,0,10.48-.1,2.19-.07,2.93.77,2.77,2.95q-.91,12.45-1.59,24.92c-.11,2.06-.86,3.11-3,3a10.6,10.6,0,0,0-1.5.07c-4.43.43-10.4-1.67-12.88,1.31-2.35,2.82-1.41,8.54-1.56,13-.52,15.8-1,31.61-1.22,47.41,0,3.43-.83,4.67-4.41,4.48-5.64-.3-11.32-.08-17-.08Z" transform="translate(-7.18 -5.43)"/><path class="cls-2" d="M431.72,98c7,.31,14,.81,21,.86,3.39,0,4.61.86,4.39,4.51-.58,9.47-.63,19-1.09,28.45a5.89,5.89,0,0,0,3.24,6c4,2.42,10.35,4.11,11,7.82.76,4.26-4,8.69-6.59,12.91a276.38,276.38,0,0,1-24.18,33c-2.13,2.53-3.2,2.32-5.29.1a297.3,297.3,0,0,1-31.23-38.27c-1.69-2.51-1.8-4.07.91-5.44,5.68-2.89,5.56-7.71,5-13.15-1.23-11.08-1.85-22.22-2.13-33.38-.09-3.67,1.18-4.52,4.59-4.26Z" transform="translate(-7.18 -5.43)"/><path class="cls-2" d="M432.85,34c-.12-4.31.66-7.76-4.72-9.14-3.84-1-4.45-5-4.21-8.72.37-5.69,4.55-9.39,12-10.58,4.6-.73,8.76,1.5,10.08,5.42,1.73,5.14-.39,10.64-5.71,13.52-2.27,1.23-3,2.41-2.68,5,.12,1.13.16,2.32.2,3.49.23,7.36.26,7.22,7.48,8.7,2.31.47,3.37-.2,4.33-2.07s2.16-3.75,3.29-5.59c1.79-2.91,3.57-5.26.68-9.12-2.73-3.65-.49-9.7,3.25-12.39,5-3.56,12.52-4.13,15.85-1,2.81,2.64,3.35,6,2.39,9.64-1.29,4.91-4.74,8.27-9.42,8.49-9.06.41-8.68,8.83-12.64,13.49-1.07,1.27.53,2.11,1.43,2.66,7.61,4.61,9.69,16,5,26.15-7.81,16.85-35,22.71-49.14,10.62-5.62-4.81-7.13-12.86-3.87-21.11a29.3,29.3,0,0,1,8.32-11.69c1.49-1.27,2.09-2.38.71-4.15a23.78,23.78,0,0,1-2.18-3.92c-1.87-3.69-3.21-6.9-9-6s-9.7-4.54-8.84-10.56c1.1-7.66,13.17-12.88,19.44-8.4,3.6,2.58,4.85,8.95,1.57,13.06-2.46,3.08-1.69,5-.11,7.81,4,7.07,3.81,6.57,11.32,4.89C433.19,41.24,433,38.61,432.85,34Z" transform="translate(-7.18 -5.43)"/><path class="cls-1" d="M397,132.25c-1.61-17.12-12.16-27.88-27.16-34.82a59.86,59.86,0,0,0-15.7-4.69c-7.13-1.15-14.28-.82-21.43-.69-2.49,0-3.45-.34-3.24-3.25.82-11.29.91-22.65,2.08-33.89.52-5-1.16-5.25-5.19-5.28-13.81-.09-27.63-.39-41.43-1-3.82-.17-4.78.55-4.65,4.47C281,75.72,281.44,98.35,282,121h-.1c.59,23.3,1.25,46.6,1.69,69.9.06,3,1,3.87,3.85,4.33a185.25,185.25,0,0,0,41.34,1.7c16.79-1.06,33-4.71,47-14.82C392.72,169.79,398.87,152.5,397,132.25Zm-46.59,19.3c-4.36,7.79-11.71,11.54-19.77,14.23-1.91.64-2.66.06-2.61-2.06.12-5.33,0-10.66,0-16h.07c0-5.17,0-10.33,0-15.5,0-1.79-.09-3.46,2.55-3,5.24,1,10.49,1.88,15.14,4.75C352.69,138.28,354.37,144.42,350.38,151.54Z" transform="translate(-7.18 -5.43)"/></svg>